<mxfile host="65bd71144e" pages="2">
    <diagram id="sb4NYYFLhLb_9W5hqXn6" name="Page-1">
        <mxGraphModel dx="950" dy="543" grid="1" gridSize="10" guides="1" tooltips="1" connect="1" arrows="1" fold="1" page="1" pageScale="1" pageWidth="850" pageHeight="1100" math="0" shadow="0">
            <root>
                <mxCell id="0"/>
                <mxCell id="1" parent="0"/>
                <mxCell id="2" value="" style="edgeStyle=none;html=1;" edge="1" parent="1" source="o0SLnCIMZ1maXzkpTsyC-2" target="o0SLnCIMZ1maXzkpTsyC-3">
                    <mxGeometry relative="1" as="geometry"/>
                </mxCell>
                <mxCell id="o0SLnCIMZ1maXzkpTsyC-2" value="" style="rounded=1;whiteSpace=wrap;html=1;" parent="1" vertex="1">
                    <mxGeometry x="310" y="200" width="90" height="50" as="geometry"/>
                </mxCell>
                <mxCell id="4" value="" style="edgeStyle=none;html=1;" edge="1" parent="1" source="o0SLnCIMZ1maXzkpTsyC-3" target="3">
                    <mxGeometry relative="1" as="geometry"/>
                </mxCell>
                <mxCell id="o0SLnCIMZ1maXzkpTsyC-3" value="" style="rounded=1;whiteSpace=wrap;html=1;" parent="1" vertex="1">
                    <mxGeometry x="440" y="200" width="90" height="50" as="geometry"/>
                </mxCell>
                <mxCell id="3" value="" style="rounded=1;whiteSpace=wrap;html=1;" vertex="1" parent="1">
                    <mxGeometry x="440" y="330" width="90" height="50" as="geometry"/>
                </mxCell>
            </root>
        </mxGraphModel>
    </diagram>
    <diagram id="M3wluSJYnYpYKdIb-jg9" name="Page-2">
        <mxGraphModel dx="950" dy="543" grid="1" gridSize="10" guides="1" tooltips="1" connect="1" arrows="1" fold="1" page="1" pageScale="1" pageWidth="850" pageHeight="1100" math="0" shadow="0">
            <root>
                <mxCell id="Bg6w1Cdy818zmXDUF-tN-0"/>
                <mxCell id="Bg6w1Cdy818zmXDUF-tN-1" parent="Bg6w1Cdy818zmXDUF-tN-0"/>
                <mxCell id="bWEFS1YSj5beskEKH9L1-3" value="" style="rounded=1;whiteSpace=wrap;html=1;" parent="Bg6w1Cdy818zmXDUF-tN-1" vertex="1">
                    <mxGeometry x="220" y="400" width="440" height="50" as="geometry"/>
                </mxCell>
                <mxCell id="bWEFS1YSj5beskEKH9L1-4" value="" style="shape=umlActor;verticalLabelPosition=bottom;verticalAlign=top;html=1;outlineConnect=0;" parent="Bg6w1Cdy818zmXDUF-tN-1" vertex="1">
                    <mxGeometry x="410" y="340" width="30" height="60" as="geometry"/>
                </mxCell>
                <mxCell id="bWEFS1YSj5beskEKH9L1-5" value="" style="ellipse;shape=cloud;whiteSpace=wrap;html=1;" parent="Bg6w1Cdy818zmXDUF-tN-1" vertex="1">
                    <mxGeometry x="510" y="280" width="120" height="80" as="geometry"/>
                </mxCell>
                <mxCell id="bWEFS1YSj5beskEKH9L1-6" value="" style="ellipse;shape=cloud;whiteSpace=wrap;html=1;" parent="Bg6w1Cdy818zmXDUF-tN-1" vertex="1">
                    <mxGeometry x="210" y="270" width="120" height="80" as="geometry"/>
                </mxCell>
            </root>
        </mxGraphModel>
    </diagram>
</mxfile>